# xmcd
#
# Track frame offsets:
#	150
#	18350
#	36352
#	60817
#
# Disc length: 1078 seconds
#
# Revision: 0
# Processed by: cddbd v1.4PL0 Copyright (c) Steve Scherf et al.
# Submitted via: audiograbber 1.81.02
#
DISCID=25043404
DTITLE=Junior M.A.F.I.A. - I Need You Tonight (Maxi)
DYEAR=1995
DGENRE=Hip-Hop
TTITLE0=I Need You Tonight (Jermaine Dupri's So So Def Remix)
TTITLE1=I Need You Tonight (Radio Edit)
TTITLE2=Player's Anthem
TTITLE3=I Need You Tonight (Extended Radio Mix)
EXTD=
EXTT0=
EXTT1=
EXTT2=
EXTT3=
PLAYORDER=
